<svg width="883" height="887" viewBox="0 0 883 887" fill="none" xmlns="http://www.w3.org/2000/svg">
<ellipse cx="556.401" cy="590.45" rx="109.477" ry="29.8573" transform="rotate(1.88895 556.401 590.45)" fill="#DA8686"/>
<path d="M788.693 350.693C766.259 266.968 643.967 208 643.967 144.183C548.5 144.183 461 124 400.306 79.215C333 141.5 239 172 171.977 186.256C181.5 286.5 134 385.5 66.0583 415.107C266 615.5 96 658.446 132.222 658.446C295.5 618 294.5 706 339.439 802.155C408.5 665.5 507.5 668.5 590.533 778.842C610.501 712.5 731.633 678.232 767.75 599.437C767.75 599.437 574.557 584.554 532.83 573.803C491.103 563.052 504.986 579.968 433 446C410.442 412.771 402.382 397.113 417.545 388.32C417.545 388.32 590.566 380.176 610.501 377.832C630.437 375.488 720.523 365.521 788.693 350.693Z" fill="#20B6CB"/>
<circle cx="585.81" cy="282.81" r="39.8097" fill="white"/>
<circle cx="612.241" cy="282.624" r="10.718" fill="#111111"/>
</svg>
